<svg xmlns="http://www.w3.org/2000/svg" xmlns:xlink="http://www.w3.org/1999/xlink" width="20" height="20" viewBox="0 0 20 20">
    <defs>
        <path id="bj3qxdgoea" d="M0 0L18.667 0 18.667 18.667 0 18.667z"/>
    </defs>
    <g fill="none" fill-rule="evenodd">
        <g>
            <g>
                <g>
                    <g>
                        <g transform="translate(-1098 -7031) translate(0 6801) translate(1048 224) translate(44) translate(6.667 6.667)">
                            <mask id="qof7850wxb" fill="#fff">
                                <use xlink:href="#bj3qxdgoea"/>
                            </mask>
                            <path fill="#9EA4AA" d="M15.529 7.424c.742 0 1.128.512 1.128.512V7.56h1.307v3.794c0 1.976-1.703 2.094-1.938 2.101h-.55v-1.191h.324c.952 0 .857-.983.857-.983v-.314c-.362.472-.983.51-1.143.513h-.038c-1.737 0-1.843-1.72-1.85-1.966v-.03c0-1.926 1.541-2.054 1.85-2.06zM2.123 5.804v2.132c.544-.53 1.143-.53 1.143-.53 1.826 0 1.895 2.05 1.895 2.05 0 2.02-1.895 2.09-1.895 2.09-.809 0-1.13-.579-1.13-.579v.44H.779V5.802h1.345zm8.55 1.62c2.348 0 2.274 2.075 2.274 2.075 0 2.044-2.274 2.047-2.274 2.047-2.072 0-2.214-1.67-2.222-1.993v-.054c0-2.075 2.222-2.075 2.222-2.075zm-5.08-1.746c1.763 0 1.9 1.692 1.91 2.042v3.686H6.207V8.09c0-1.023-.491-1.109-.595-1.115h-.019zM2.97 8.635c-.477 0-.864.387-.864.864 0 .478.387.865.864.865s.864-.387.864-.865c0-.477-.387-.864-.864-.864zm7.704 0c-.478 0-.865.387-.865.864 0 .478.387.865.865.865.477 0 .864-.387.864-.865 0-.477-.387-.864-.864-.864zm5.18 0c-.478 0-.865.387-.865.864 0 .478.387.865.865.865.477 0 .864-.387.864-.865 0-.477-.387-.864-.864-.864z" mask="url(#qof7850wxb)"/>
                        </g>
                    </g>
                </g>
            </g>
        </g>
    </g>
</svg>
