<svg width="24" height="24" viewBox="0 0 24 24" fill="none" xmlns="http://www.w3.org/2000/svg">
<path d="M20.75 6.66066C20.1064 6.94128 19.4151 7.1309 18.6883 7.2166C19.4382 6.77503 19.9993 6.08003 20.2668 5.2613C19.5622 5.67314 18.7911 5.96302 17.987 6.11836C17.4462 5.55017 16.73 5.17357 15.9494 5.04702C15.1689 4.92047 14.3677 5.05105 13.6703 5.41849C12.9729 5.78594 12.4183 6.36968 12.0926 7.0791C11.7669 7.78852 11.6883 8.58391 11.869 9.3418C10.4414 9.27126 9.04477 8.90611 7.76984 8.27003C6.49491 7.63395 5.37013 6.74117 4.46851 5.64963C4.16022 6.17297 3.98296 6.77973 3.98296 7.42594C3.98261 8.00767 4.12819 8.58049 4.40676 9.09358C4.68533 9.60667 5.08829 10.0442 5.57989 10.3672C5.00977 10.3494 4.45223 10.1978 3.95367 9.92506V9.97056C3.95361 10.7865 4.2404 11.5773 4.76538 12.2088C5.29036 12.8403 6.02118 13.2736 6.83385 13.4352C6.30497 13.5761 5.75048 13.5968 5.21226 13.4959C5.44154 14.1979 5.88818 14.8118 6.48963 15.2516C7.09107 15.6915 7.81723 15.9352 8.56644 15.9487C7.29462 16.9312 5.72393 17.4642 4.10704 17.4618C3.82063 17.4619 3.53446 17.4455 3.25 17.4125C4.89123 18.451 6.80175 19.0021 8.75295 19C15.358 19 18.9689 13.6165 18.9689 8.9474C18.9689 8.79571 18.965 8.6425 18.9581 8.49081C19.6604 7.99097 20.2667 7.37201 20.7485 6.66293L20.75 6.66066Z" fill="#9EA4AA"/>
</svg>
