<svg xmlns="http://www.w3.org/2000/svg" xmlns:xlink="http://www.w3.org/1999/xlink" width="20" height="20" viewBox="0 0 20 20">
    <defs>
        <path id="jts7mjubfa" d="M0 0L18.667 0 18.667 18.667 0 18.667z"/>
    </defs>
    <g fill="none" fill-rule="evenodd">
        <g>
            <g>
                <g>
                    <g>
                        <g transform="translate(-1230 -7031) translate(0 6801) translate(1048 224) translate(176) translate(6.667 6.667)">
                            <mask id="slrr6g6mjb" fill="#fff">
                                <use xlink:href="#jts7mjubfa"/>
                            </mask>
                            <path fill="#9EA4AA" d="M9.49 5.933c.582 0 1.312-.393 1.746-.918.394-.476.681-1.14.681-1.805 0-.09-.008-.18-.024-.254-.648.024-1.428.434-1.895.984-.37.418-.706 1.075-.706 1.747 0 .099.017.197.025.23.04.008.107.016.172.016zM7.437 15.86c.796 0 1.149-.533 2.141-.533 1.01 0 1.23.517 2.117.517.87 0 1.452-.804 2.001-1.592.616-.902.87-1.788.886-1.829-.057-.016-1.722-.697-1.722-2.609 0-1.657 1.312-2.403 1.386-2.46-.87-1.247-2.19-1.28-2.551-1.28-.976 0-1.772.59-2.272.59-.542 0-1.256-.557-2.1-.557-1.608 0-3.24 1.328-3.24 3.839 0 1.558.606 3.207 1.353 4.273.64.903 1.198 1.641 2.001 1.641z" mask="url(#slrr6g6mjb)"/>
                        </g>
                    </g>
                </g>
            </g>
        </g>
    </g>
</svg>
