<svg xmlns="http://www.w3.org/2000/svg" xmlns:xlink="http://www.w3.org/1999/xlink" width="20" height="20" viewBox="0 0 20 20">
    <defs>
        <path id="oelh4td96a" d="M0 0L18.667 0 18.667 18.667 0 18.667z"/>
    </defs>
    <g fill="none" fill-rule="evenodd">
        <g>
            <g>
                <g>
                    <g>
                        <g transform="translate(-1054 -7031) translate(0 6801) translate(1048 224) translate(6.667 6.667)">
                            <mask id="g38tw3gscb" fill="#fff">
                                <use xlink:href="#oelh4td96a"/>
                            </mask>
                            <path fill="#9EA4AA" d="M10.276 1.556c1.274.003 1.574.015 2.259.046.827.038 1.392.17 1.887.362.511.198.945.464 1.377.896.432.432.698.866.896 1.377.193.495.324 1.06.362 1.887.038.83.047 1.094.047 3.206 0 2.11-.01 2.376-.047 3.205-.038.827-.17 1.392-.362 1.887-.198.511-.464.945-.896 1.377-.432.432-.866.698-1.377.896-.495.193-1.06.324-1.887.362-.83.038-1.094.047-3.205.047-2.112 0-2.377-.01-3.206-.047-.827-.038-1.392-.17-1.887-.362-.511-.198-.945-.464-1.377-.896-.432-.432-.698-.866-.896-1.377-.193-.495-.324-1.06-.362-1.887-.031-.685-.043-.985-.046-2.259V8.383c.003-1.274.015-1.574.046-2.259.038-.827.17-1.392.362-1.887.198-.511.464-.945.896-1.377.432-.432.866-.698 1.377-.896.495-.193 1.06-.324 1.887-.362.685-.031.985-.043 2.259-.046zm-.445 1.4H8.828c-1.621.002-1.891.011-2.64.046-.758.034-1.17.16-1.443.267-.363.141-.622.31-.894.582-.272.272-.44.53-.582.894-.106.274-.233.685-.267 1.443-.035.749-.044 1.019-.046 2.64V9.83c.002 1.621.011 1.891.046 2.64.034.758.16 1.17.267 1.443.141.363.31.622.582.894.272.272.53.44.894.582.274.106.685.233 1.443.267.749.035 1.019.044 2.64.046H9.83c1.622-.002 1.892-.011 2.64-.046.758-.034 1.17-.16 1.443-.267.363-.141.622-.31.894-.582.272-.272.44-.53.582-.894.106-.274.233-.685.267-1.443.035-.749.044-1.019.046-2.64V8.828c-.002-1.621-.011-1.891-.046-2.64-.034-.758-.16-1.17-.267-1.443-.141-.363-.31-.622-.582-.894-.272-.272-.53-.44-.894-.582-.274-.106-.685-.233-1.443-.267-.749-.035-1.019-.044-2.64-.046zM9.33 5.337c2.204 0 3.992 1.788 3.992 3.993 0 2.204-1.788 3.992-3.992 3.992-2.205 0-3.993-1.788-3.993-3.992 0-2.205 1.788-3.993 3.993-3.993zm0 1.401c-1.432 0-2.592 1.16-2.592 2.592 0 1.43 1.16 2.59 2.592 2.59 1.43 0 2.59-1.16 2.59-2.59 0-1.432-1.16-2.592-2.59-2.592zm4.15-2.491c.515 0 .932.417.932.933 0 .515-.417.933-.933.933-.515 0-.933-.418-.933-.933 0-.516.418-.933.933-.933z" mask="url(#g38tw3gscb)"/>
                        </g>
                    </g>
                </g>
            </g>
        </g>
    </g>
</svg>
