<svg width="22" height="22" viewBox="0 0 22 22" fill="none" xmlns="http://www.w3.org/2000/svg">
<g clip-path="url(#clip0_1188_8846)">
<path d="M21.3891 11.0002C21.3891 5.2626 16.7379 0.611328 11.0002 0.611328C5.2626 0.611328 0.611328 5.2626 0.611328 11.0002C0.611328 16.7379 5.2626 21.3891 11.0002 21.3891C16.7379 21.3891 21.3891 16.7379 21.3891 11.0002Z" fill="white" fill-opacity="0.5"/>
<path d="M21.3891 11.0002C21.3891 5.2626 16.7379 0.611328 11.0002 0.611328C5.2626 0.611328 0.611328 5.2626 0.611328 11.0002C0.611328 16.7379 5.2626 21.3891 11.0002 21.3891C16.7379 21.3891 21.3891 16.7379 21.3891 11.0002Z" stroke="#DFE2E7" stroke-width="1.22222"/>
<path fill-rule="evenodd" clip-rule="evenodd" d="M16.0378 6.76082C16.3541 7.01382 16.4053 7.4753 16.1523 7.79156L10.0412 15.4304C9.90711 15.598 9.70628 15.6985 9.4917 15.7053C9.27713 15.712 9.07037 15.6244 8.92596 15.4656L5.8704 12.1045C5.59796 11.8048 5.62005 11.341 5.91973 11.0686C6.21941 10.7961 6.68321 10.8182 6.95565 11.1179L9.43295 13.8429L15.0071 6.87534C15.2601 6.55909 15.7215 6.50781 16.0378 6.76082Z" fill="#C9CDD2"/>
</g>
<defs>
<clipPath id="clip0_1188_8846">
<rect width="22" height="22" fill="white"/>
</clipPath>
</defs>
</svg>
